<svg width="337" height="64" viewBox="0 0 337 64" fill="none" xmlns="http://www.w3.org/2000/svg">
<path d="M23.552 48.832C20.992 48.832 18.3893 47.7013 15.744 45.44L15.232 48H6.016L14.72 7.296L24.192 6.016L16.512 41.92C17.7067 42.7733 18.9227 43.2 20.16 43.2C22.592 43.2 24.7253 41.792 26.56 38.976C28.4373 36.16 29.888 32.576 30.912 28.224C31.936 23.872 32.448 19.4773 32.448 15.04C32.448 10.8587 31.616 7.808 29.952 5.888C28.3307 3.92533 26.048 2.944 23.104 2.944C19.904 2.944 17.024 3.584 14.464 4.864C11.9467 6.10133 9.96267 7.89333 8.512 10.24C7.06133 12.5867 6.336 15.3387 6.336 18.496C6.336 20.0747 6.48533 21.184 6.784 21.824C7.08267 22.4213 7.232 22.7627 7.232 22.848C5.01333 22.848 3.30667 22.3787 2.112 21.44C0.96 20.5013 0.384 18.9867 0.384 16.896C0.384 13.9947 1.472 11.2427 3.648 8.64C5.824 6.03733 8.72533 3.94666 12.352 2.368C16.0213 0.78933 19.968 -3.8147e-06 24.192 -3.8147e-06C30.0373 -3.8147e-06 34.3467 1.728 37.12 5.184C39.8933 8.64 41.28 13.056 41.28 18.432C41.28 23.296 40.448 28.096 38.784 32.832C37.1627 37.5253 34.9867 41.3653 32.256 44.352C29.5253 47.3387 26.624 48.832 23.552 48.832ZM46.7895 16H56.0055L55.1735 19.968C56.6242 18.688 57.9255 17.7067 59.0775 17.024C60.2722 16.3413 61.5522 16 62.9175 16C64.2828 16 65.3495 16.4693 66.1175 17.408C66.9282 18.3467 67.3335 19.4773 67.3335 20.8C67.3335 22.0373 66.9282 23.1253 66.1175 24.064C65.3068 25.0027 64.1762 25.472 62.7255 25.472C61.7868 25.472 61.1468 25.2587 60.8055 24.832C60.5068 24.3627 60.2722 23.7013 60.1015 22.848C59.9735 22.2933 59.8455 21.888 59.7175 21.632C59.5895 21.376 59.3548 21.248 59.0135 21.248C58.1175 21.248 57.3495 21.44 56.7095 21.824C56.1122 22.1653 55.3228 22.784 54.3415 23.68L49.2215 48H40.0055L46.7895 16ZM75.652 48.384C72.4947 48.384 70.0413 47.5733 68.292 45.952C66.5427 44.288 65.668 41.7067 65.668 38.208C65.668 35.264 66.244 32.0213 67.396 28.48C68.548 24.9387 70.4253 21.888 73.028 19.328C75.6307 16.7253 78.9373 15.424 82.948 15.424C87.6413 15.424 89.988 17.472 89.988 21.568C89.988 23.9573 89.3053 26.1547 87.94 28.16C86.5747 30.1653 84.7613 31.7867 82.5 33.024C80.2387 34.2187 77.828 34.9013 75.268 35.072C75.1827 36.352 75.14 37.2053 75.14 37.632C75.14 39.7227 75.5027 41.152 76.228 41.92C76.9533 42.6453 78.1267 43.008 79.748 43.008C82.052 43.008 84.0147 42.4747 85.636 41.408C87.3 40.3413 89.1133 38.72 91.076 36.544H93.252C88.516 44.4373 82.6493 48.384 75.652 48.384ZM75.78 32C77.3587 31.9147 78.852 31.36 80.26 30.336C81.7107 29.312 82.8627 28.0107 83.716 26.432C84.612 24.8533 85.06 23.1893 85.06 21.44C85.06 19.6907 84.5267 18.816 83.46 18.816C81.924 18.816 80.4093 20.16 78.916 22.848C77.4653 25.536 76.42 28.5867 75.78 32ZM98.7425 48.384C96.3105 48.384 94.2838 47.552 92.6625 45.888C91.0412 44.224 90.2305 41.6213 90.2305 38.08C90.2305 34.9227 90.8492 31.616 92.0865 28.16C93.3665 24.6613 95.2438 21.7173 97.7185 19.328C100.236 16.896 103.223 15.68 106.679 15.68C108.428 15.68 109.729 15.9787 110.583 16.576C111.436 17.1733 111.863 17.9627 111.863 18.944V19.392L112.567 16H121.783L117.175 37.76C117.004 38.4 116.919 39.0827 116.919 39.808C116.919 41.6427 117.793 42.56 119.543 42.56C120.737 42.56 121.761 42.0053 122.615 40.896C123.511 39.7867 124.215 38.336 124.727 36.544H127.415C125.836 41.152 123.873 44.288 121.527 45.952C119.223 47.5733 116.897 48.384 114.551 48.384C112.759 48.384 111.308 47.8933 110.199 46.912C109.132 45.888 108.492 44.416 108.279 42.496C107.041 44.2453 105.655 45.6747 104.119 46.784C102.625 47.8507 100.833 48.384 98.7425 48.384ZM102.903 42.176C103.969 42.176 105.015 41.6853 106.039 40.704C107.105 39.68 107.831 38.2933 108.215 36.544L111.287 22.08C111.287 21.5253 111.073 20.992 110.647 20.48C110.22 19.9253 109.559 19.648 108.663 19.648C106.956 19.648 105.42 20.6507 104.055 22.656C102.689 24.6187 101.623 27.008 100.855 29.824C100.087 32.5973 99.7025 35.0507 99.7025 37.184C99.7025 39.3173 100.001 40.6827 100.599 41.28C101.239 41.8773 102.007 42.176 102.903 42.176ZM163.662 48.384C161.059 48.384 159.139 47.7013 157.902 46.336C156.707 44.928 156.11 43.2 156.11 41.152C156.11 40.256 156.217 39.2533 156.43 38.144C156.643 36.992 156.857 35.8827 157.07 34.816C157.326 33.7493 157.497 33.0667 157.582 32.768C157.923 31.2747 158.243 29.8027 158.542 28.352C158.841 26.9013 158.99 25.728 158.99 24.832C158.99 22.656 158.222 21.568 156.686 21.568C155.577 21.568 154.595 22.1227 153.742 23.232C152.889 24.2987 152.206 25.7067 151.694 27.456L147.342 48H138.126L142.798 25.92C142.926 25.408 142.99 24.8747 142.99 24.32C142.99 22.4427 142.35 21.504 141.07 21.504C139.875 21.504 138.83 22.0587 137.934 23.168C137.081 24.2347 136.398 25.664 135.886 27.456L131.534 48H122.318L129.102 16H138.318L137.614 19.328C139.79 16.896 142.393 15.68 145.422 15.68C149.177 15.68 151.374 17.5147 152.014 21.184C154.361 17.5573 157.326 15.744 160.91 15.744C163.086 15.744 164.814 16.3413 166.094 17.536C167.374 18.7307 168.014 20.544 168.014 22.976C168.014 24.2133 167.865 25.6 167.566 27.136C167.267 28.6293 166.841 30.464 166.286 32.64C165.945 33.9627 165.625 35.264 165.326 36.544C165.07 37.7813 164.942 38.7627 164.942 39.488C164.942 40.3413 165.134 41.0027 165.518 41.472C165.902 41.9413 166.563 42.176 167.502 42.176C168.782 42.176 169.806 41.728 170.574 40.832C171.342 39.8933 172.11 38.464 172.878 36.544H175.566C173.987 41.2373 172.153 44.3947 170.062 46.016C168.014 47.5947 165.881 48.384 163.662 48.384ZM180.171 48.384C178.123 48.384 176.395 48 174.987 47.232C173.579 46.4213 172.534 45.3973 171.851 44.16C171.168 42.88 170.827 41.5573 170.827 40.192C170.827 38.784 171.168 37.568 171.851 36.544C172.491 35.4773 173.28 34.7093 174.219 34.24C175.883 31.2533 177.334 28.2453 178.571 25.216C179.808 22.144 180.982 18.8373 182.091 15.296L191.563 14.016C191.776 19.4773 192.139 25.3867 192.651 31.744C192.864 34.304 192.971 36.16 192.971 37.312C192.971 39.9147 192.31 42.048 190.987 43.712C189.664 45.376 188.022 46.5707 186.059 47.296C184.139 48.0213 182.176 48.384 180.171 48.384ZM178.123 43.328C179.702 43.328 181.024 42.8587 182.091 41.92C183.158 40.9813 183.691 39.4667 183.691 37.376C183.691 36.096 183.563 34.304 183.307 32C182.88 27.136 182.603 23.872 182.475 22.208C181.451 25.5787 179.723 29.6107 177.291 34.304C178.272 34.816 178.763 35.5627 178.763 36.544C178.763 37.3547 178.486 38.08 177.931 38.72C177.419 39.36 176.758 39.68 175.947 39.68C175.051 39.68 174.475 39.4027 174.219 38.848C174.219 40.384 174.518 41.5147 175.115 42.24C175.755 42.9653 176.758 43.328 178.123 43.328ZM217.893 49.088C216.186 49.088 214.693 48.7253 213.413 48C212.176 47.3173 211.557 46.1013 211.557 44.352C211.557 43.2427 211.834 42.0053 212.389 40.64C213.157 41.4933 213.861 42.0907 214.501 42.432C215.184 42.7733 215.909 42.944 216.677 42.944C218.81 42.944 220.389 41.7493 221.413 39.36C222.48 36.9707 223.013 34.3253 223.013 31.424C223.013 26.0053 220.986 23.296 216.933 23.296C215.781 23.296 214.8 23.36 213.989 23.488L208.741 48H199.525L208.229 7.296L217.701 6.016L214.693 20.224H215.077C216.698 20.224 218.213 19.712 219.621 18.688C221.029 17.6213 222.16 16.2987 223.013 14.72C223.866 13.0987 224.293 11.4773 224.293 9.856C224.293 7.89333 223.589 6.25067 222.181 4.928C220.816 3.60533 218.704 2.944 215.845 2.944C213.242 2.944 210.704 3.54133 208.229 4.736C205.754 5.888 203.728 7.63733 202.149 9.984C200.613 12.3307 199.845 15.168 199.845 18.496C199.845 20.0747 199.994 21.184 200.293 21.824C200.592 22.4213 200.741 22.7627 200.741 22.848C198.48 22.848 196.773 22.4 195.621 21.504C194.469 20.5653 193.893 19.0507 193.893 16.96C193.893 14.0587 194.981 11.3067 197.157 8.704C199.333 6.10133 202.213 4.01067 205.797 2.432C209.381 0.810664 213.157 -3.8147e-06 217.125 -3.8147e-06C220.112 -3.8147e-06 222.629 0.46933 224.677 1.408C226.725 2.34666 228.24 3.584 229.221 5.12C230.245 6.656 230.757 8.34133 230.757 10.176C230.757 12.1387 230.202 14.0373 229.093 15.872C227.984 17.7067 226.405 19.2 224.357 20.352C226.917 20.8213 228.816 22.016 230.053 23.936C231.29 25.8133 231.909 28.0533 231.909 30.656C231.909 33.088 231.44 35.7333 230.501 38.592C229.605 41.4507 228.09 43.9253 225.957 46.016C223.866 48.064 221.178 49.088 217.893 49.088ZM243.277 48.384C240.12 48.384 237.666 47.5733 235.917 45.952C234.168 44.288 233.293 41.7067 233.293 38.208C233.293 35.264 233.869 32.0213 235.021 28.48C236.173 24.9387 238.05 21.888 240.653 19.328C243.256 16.7253 246.562 15.424 250.573 15.424C255.266 15.424 257.613 17.472 257.613 21.568C257.613 23.9573 256.93 26.1547 255.565 28.16C254.2 30.1653 252.386 31.7867 250.125 33.024C247.864 34.2187 245.453 34.9013 242.893 35.072C242.808 36.352 242.765 37.2053 242.765 37.632C242.765 39.7227 243.128 41.152 243.853 41.92C244.578 42.6453 245.752 43.008 247.373 43.008C249.677 43.008 251.64 42.4747 253.261 41.408C254.925 40.3413 256.738 38.72 258.701 36.544H260.877C256.141 44.4373 250.274 48.384 243.277 48.384ZM243.405 32C244.984 31.9147 246.477 31.36 247.885 30.336C249.336 29.312 250.488 28.0107 251.341 26.432C252.237 24.8533 252.685 23.1893 252.685 21.44C252.685 19.6907 252.152 18.816 251.085 18.816C249.549 18.816 248.034 20.16 246.541 22.848C245.09 25.536 244.045 28.5867 243.405 32ZM263.04 16H272.256L271.424 19.968C272.874 18.688 274.176 17.7067 275.328 17.024C276.522 16.3413 277.802 16 279.168 16C280.533 16 281.6 16.4693 282.368 17.408C283.178 18.3467 283.584 19.4773 283.584 20.8C283.584 22.0373 283.178 23.1253 282.368 24.064C281.557 25.0027 280.426 25.472 278.976 25.472C278.037 25.472 277.397 25.2587 277.056 24.832C276.757 24.3627 276.522 23.7013 276.352 22.848C276.224 22.2933 276.096 21.888 275.968 21.632C275.84 21.376 275.605 21.248 275.264 21.248C274.368 21.248 273.6 21.44 272.96 21.824C272.362 22.1653 271.573 22.784 270.592 23.68L265.472 48H256.255L263.04 16ZM287.102 16H296.318L295.486 19.968C296.937 18.688 298.238 17.7067 299.39 17.024C300.585 16.3413 301.865 16 303.23 16C304.595 16 305.662 16.4693 306.43 17.408C307.241 18.3467 307.646 19.4773 307.646 20.8C307.646 22.0373 307.241 23.1253 306.43 24.064C305.619 25.0027 304.489 25.472 303.038 25.472C302.099 25.472 301.459 25.2587 301.118 24.832C300.819 24.3627 300.585 23.7013 300.414 22.848C300.286 22.2933 300.158 21.888 300.03 21.632C299.902 21.376 299.667 21.248 299.326 21.248C298.43 21.248 297.662 21.44 297.022 21.824C296.425 22.1653 295.635 22.784 294.654 23.68L289.534 48H280.318L287.102 16ZM316.797 64C314.791 64 313.021 63.3387 311.485 62.016C309.991 60.736 309.245 59.0933 309.245 57.088C309.245 55.2107 309.714 53.6747 310.653 52.48C311.591 51.2853 312.807 50.3467 314.301 49.664C315.794 48.9813 317.799 48.256 320.317 47.488L320.957 44.672C318.781 47.1467 316.178 48.384 313.149 48.384C311.101 48.384 309.437 47.744 308.157 46.464C306.919 45.184 306.3 43.264 306.3 40.704C306.3 39.6373 306.471 38.2507 306.812 36.544L311.165 16H320.381L315.773 37.76C315.645 38.272 315.581 38.8053 315.581 39.36C315.581 41.2373 316.221 42.176 317.501 42.176C318.695 42.176 319.719 41.6853 320.573 40.704C321.426 39.68 322.109 38.2933 322.621 36.544L326.973 16H336.253L328.445 53.12C327.591 57.216 326.077 60.0533 323.901 61.632C321.767 63.2107 319.399 64 316.797 64ZM315.325 58.304C316.093 58.304 316.818 57.8987 317.501 57.088C318.183 56.32 318.717 55.0613 319.101 53.312L319.869 49.536C317.607 50.304 315.858 51.2 314.621 52.224C313.383 53.248 312.765 54.5707 312.765 56.192C312.765 56.704 313.021 57.1733 313.533 57.6C314.045 58.0693 314.642 58.304 315.325 58.304Z" fill="#313131"/>
</svg>
