<svg width="2886" height="1846" viewBox="0 0 2886 1846" fill="none" xmlns="http://www.w3.org/2000/svg">
<path fill-rule="evenodd" clip-rule="evenodd" d="M2886 0H0V1846H2886V0ZM1487.79 123.185L1496.01 114.04L1523.14 150H1553.13H1565.45H1590.33L1597.61 131.09H1638.84L1646.13 150H1683.95L1636.52 41.5H1600.56L1557.66 139.619L1519.88 89.2402L1563.28 41.5H1523.45L1487.79 80.8701V41.5H1451.83V150H1487.79V123.185ZM1618.23 77.46L1628.77 104.74H1607.69L1618.23 77.46ZM1726.36 41.5H1689.78V150H1775.18H1775.34H1812.38L1819.67 131.09H1860.9L1868.18 150H1906L1858.57 41.5H1822.61L1775.34 149.629V121.635H1726.36V41.5ZM1840.28 77.46L1850.82 104.74H1829.74L1840.28 77.46ZM2018.79 150V41.5H1983.14V90.79L1941.91 41.5H1911.84V150H1947.49V100.71L1988.72 150H2018.79ZM2139.96 92.8047H2108.18V120.24C2103.94 121.997 2099.5 122.875 2094.85 122.875C2087 122.875 2080.69 120.395 2075.94 115.435C2071.29 110.475 2068.97 103.913 2068.97 95.75C2068.97 87.3799 2071.34 80.7666 2076.09 75.9102C2080.85 71.0537 2087.26 68.625 2095.32 68.625C2104.72 68.625 2112.83 72.6035 2119.65 80.5596L2143.06 59.9453C2137.48 53.125 2130.45 47.958 2121.98 44.4453C2113.6 40.8281 2104.1 39.0195 2093.46 39.0195C2081.68 39.0195 2071.08 41.4482 2061.68 46.3047C2052.38 51.0586 2045.09 57.7754 2039.83 66.4551C2034.66 75.0312 2032.08 84.7969 2032.08 95.75C2032.08 106.703 2034.66 116.52 2039.83 125.2C2045.09 133.776 2052.33 140.493 2061.53 145.35C2070.72 150.104 2081.11 152.48 2092.68 152.48C2100.84 152.48 2109.16 151.292 2117.64 148.915C2126.11 146.538 2133.55 143.128 2139.96 138.685V92.8047ZM2259.08 92.8047H2227.31V120.24C2223.07 121.997 2218.63 122.875 2213.98 122.875C2206.12 122.875 2199.82 120.395 2195.07 115.435C2190.42 110.475 2188.09 103.913 2188.09 95.75C2188.09 87.3799 2190.47 80.7666 2195.22 75.9102C2199.97 71.0537 2206.38 68.625 2214.44 68.625C2223.84 68.625 2231.96 72.6035 2238.78 80.5596L2262.18 59.9453C2256.6 53.125 2249.57 47.958 2241.1 44.4453C2232.73 40.8281 2223.22 39.0195 2212.58 39.0195C2200.8 39.0195 2190.21 41.4482 2180.81 46.3047C2171.51 51.0586 2164.22 57.7754 2158.95 66.4551C2153.78 75.0312 2151.2 84.7969 2151.2 95.75C2151.2 106.703 2153.78 116.52 2158.95 125.2C2164.22 133.776 2171.45 140.493 2180.65 145.35C2189.85 150.104 2200.23 152.48 2211.81 152.48C2219.97 152.48 2228.29 151.292 2236.76 148.915C2245.23 146.538 2252.67 143.128 2259.08 138.685V92.8047ZM2300.09 150L2307.37 131.09H2348.6L2355.89 150H2393.71L2346.28 41.5H2310.32L2262.89 150H2300.09ZM2327.99 77.46L2338.53 104.74H2317.45L2327.99 77.46ZM2496.11 100.555L2496.42 150H2529.74L2529.44 41.5H2499.36L2464.96 99.3154L2429.61 41.5H2399.54V150H2432.87V102.26L2456.43 140.235H2472.55L2496.11 100.555ZM2572.85 150L2580.14 131.09H2621.37L2628.65 150H2666.47L2619.04 41.5H2583.08L2535.65 150H2572.85ZM2600.75 77.46L2611.29 104.74H2590.21L2600.75 77.46ZM2749.19 150H2779.26V41.5H2743.61V90.79L2702.38 41.5H2672.31V150H2707.96V100.71L2749.19 150Z" fill="#222222"/>
</svg>
